<?xml version="1.0" standalone="no"?>
<!DOCTYPE svg PUBLIC "-//W3C//DTD SVG 20010904//EN"
 "http://www.w3.org/TR/2001/REC-SVG-20010904/DTD/svg10.dtd">
<svg version="1.0" xmlns="http://www.w3.org/2000/svg"
 width="1024.000000pt" height="1024.000000pt" viewBox="0 0 1024.000000 1024.000000"
 preserveAspectRatio="xMidYMid meet">
<metadata>
Created by potrace 1.14, written by Peter Selinger 2001-2017
</metadata>
<g transform="translate(0.000000,1024.000000) scale(0.100000,-0.100000)"
fill="#000000" stroke="none">
<path d="M6029 9936 c-2 -2 -20 -6 -39 -9 -134 -18 -359 -114 -446 -189 -11
-10 -23 -18 -27 -18 -7 0 -19 -10 -140 -122 -48 -45 -113 -114 -145 -152 -31
-39 -60 -72 -64 -74 -5 -2 -8 -10 -8 -18 0 -8 -4 -14 -9 -14 -10 0 -151 -213
-151 -229 0 -6 -3 -11 -7 -11 -5 0 -17 -19 -28 -43 -11 -23 -23 -44 -27 -47
-11 -8 -122 -247 -155 -335 -43 -111 -46 -119 -48 -127 -2 -5 -4 -10 -5 -13
-1 -3 -3 -8 -4 -12 -9 -39 -41 -130 -50 -139 -8 -8 -136 -43 -176 -49 -3 0
-11 -4 -17 -8 -7 -5 -13 -6 -13 -3 0 3 -38 -8 -84 -24 -47 -17 -92 -30 -100
-30 -9 0 -16 -3 -16 -8 0 -4 -17 -12 -37 -19 -21 -6 -60 -22 -88 -34 -27 -13
-52 -24 -55 -24 -21 -4 -298 -162 -318 -182 -7 -7 -17 -13 -22 -13 -9 0 -81
40 -90 50 -15 16 -259 140 -335 170 -33 13 -64 26 -70 30 -5 3 -44 17 -85 30
-41 14 -77 27 -80 30 -3 3 -14 6 -25 6 -11 1 -47 9 -80 18 -85 23 -127 31
-285 50 -106 13 -357 14 -440 2 -25 -4 -58 -9 -75 -11 -16 -2 -41 -7 -55 -10
-14 -3 -38 -8 -55 -11 -16 -2 -48 -10 -70 -16 -22 -5 -51 -12 -64 -15 -44 -8
-276 -95 -283 -107 -4 -6 -8 -8 -8 -4 0 9 -184 -83 -188 -94 -2 -5 -10 -8 -18
-8 -8 0 -14 -4 -14 -10 0 -5 -5 -10 -11 -10 -16 0 -159 -101 -254 -179 -44
-36 -123 -109 -175 -162 -98 -99 -108 -110 -175 -194 -22 -27 -42 -52 -45 -55
-3 -3 -17 -21 -30 -40 -13 -19 -27 -37 -30 -40 -13 -12 -70 -102 -70 -110 0
-6 -4 -10 -10 -10 -5 0 -10 -6 -10 -14 0 -8 -4 -16 -8 -18 -19 -8 -212 -367
-212 -394 0 -8 -4 -14 -10 -14 -5 0 -10 -5 -10 -10 0 -6 -7 -27 -17 -48 -30
-69 -111 -281 -118 -312 -2 -8 -4 -16 -5 -17 -2 -2 -3 -6 -4 -10 -1 -5 -4 -12
-7 -18 -3 -5 -11 -28 -17 -50 -18 -61 -62 -220 -67 -241 -26 -112 -44 -195
-49 -224 -3 -19 -8 -46 -11 -60 -3 -14 -8 -41 -11 -60 -2 -19 -7 -46 -9 -60
-8 -41 -21 -136 -30 -220 -3 -30 -7 -68 -10 -85 -27 -194 -27 -830 1 -1070 2
-22 6 -59 8 -82 3 -23 7 -47 11 -53 3 -5 1 -10 -5 -10 -7 0 -8 -6 -1 -18 5 -9
12 -44 16 -77 15 -142 21 -180 25 -180 1 0 4 -13 5 -30 2 -16 6 -41 10 -55 3
-14 7 -38 9 -55 8 -60 52 -257 76 -340 5 -16 11 -41 14 -55 3 -14 14 -55 25
-92 11 -38 17 -68 14 -68 -3 0 -1 -6 5 -12 6 -7 11 -17 11 -23 2 -16 21 -88
28 -105 3 -8 7 -19 9 -25 5 -20 65 -191 78 -225 18 -43 29 -73 31 -82 2 -5 4
-10 5 -13 1 -3 3 -8 5 -12 3 -13 16 -44 41 -101 13 -29 24 -54 24 -56 0 -2 10
-25 22 -52 12 -27 21 -52 20 -56 -1 -5 2 -8 8 -8 5 0 10 -7 10 -16 0 -8 13
-39 30 -69 17 -30 30 -61 30 -69 0 -8 3 -16 8 -18 4 -1 16 -21 27 -43 42 -85
154 -283 198 -353 26 -40 47 -76 47 -81 0 -5 4 -11 8 -13 5 -1 26 -30 47 -63
22 -33 43 -64 48 -70 4 -5 26 -35 48 -65 68 -92 83 -113 97 -127 7 -7 11 -13
8 -13 -3 0 10 -16 29 -35 19 -19 35 -37 35 -40 0 -8 57 -70 199 -220 101 -105
340 -315 360 -315 6 0 11 -3 11 -7 0 -5 17 -19 38 -33 20 -14 39 -28 42 -31 6
-7 160 -109 165 -109 2 0 39 -21 82 -46 87 -52 258 -134 278 -134 7 0 15 -4
17 -8 3 -8 200 -77 248 -88 14 -3 30 -6 35 -7 6 -2 16 -6 23 -10 6 -5 12 -6
12 -3 0 2 15 0 33 -5 17 -6 41 -12 52 -13 22 -3 100 -16 129 -22 120 -22 413
-22 551 1 17 3 46 7 65 10 19 2 35 4 35 5 0 2 25 7 70 15 22 4 45 11 51 16 6
5 13 6 16 3 8 -7 201 59 300 102 42 19 79 34 83 34 3 0 32 -12 63 -26 78 -36
233 -94 292 -109 8 -2 29 -8 47 -14 17 -5 34 -7 37 -3 3 3 6 1 6 -4 0 -5 12
-11 28 -12 15 -1 41 -6 57 -11 44 -14 194 -37 305 -48 99 -9 490 -3 490 7 0 3
15 7 33 8 17 1 55 7 82 12 28 5 61 12 75 14 23 5 172 42 195 50 6 1 24 7 40
11 38 10 204 74 230 88 11 6 25 12 32 13 7 1 26 9 43 17 16 9 30 12 30 9 0 -7
8 -11 120 -57 63 -27 194 -71 235 -80 23 -5 65 -15 80 -19 12 -3 71 -15 105
-20 14 -3 25 -5 25 -6 0 -1 20 -4 45 -5 25 -2 45 -4 45 -5 0 -5 88 -10 205
-11 104 -1 219 5 290 15 40 6 126 20 130 21 3 1 19 4 35 8 17 4 40 10 53 12
47 10 60 14 157 45 55 18 124 43 153 56 28 12 52 20 52 17 0 -3 8 1 18 10 9 8
20 16 25 16 11 0 161 72 167 80 3 3 23 15 45 26 22 11 42 22 45 25 3 3 18 12
34 20 34 17 237 157 279 192 15 13 33 28 40 33 179 146 382 345 475 464 15 19
38 46 50 60 35 38 210 276 263 356 100 154 119 185 119 195 0 5 4 10 9 10 5 0
11 8 14 18 4 9 27 53 52 97 52 92 179 349 219 445 16 36 34 77 42 91 8 15 15
35 17 45 2 11 12 39 24 64 11 25 28 70 38 100 10 30 20 60 24 65 3 6 6 15 7
20 2 6 14 43 28 82 13 40 22 73 19 73 -3 0 -1 6 5 13 6 6 18 39 27 72 43 155
77 282 81 304 3 14 7 28 9 31 2 4 7 22 10 41 3 19 11 52 16 74 5 22 11 49 13
60 4 24 17 92 23 120 2 11 6 31 8 45 6 34 13 65 15 65 0 0 3 20 6 45 5 44 9
76 18 135 3 17 7 53 10 81 2 28 8 70 11 95 27 173 40 757 23 994 -14 175 -22
254 -43 405 -5 34 -15 99 -21 130 -2 14 -7 41 -10 60 -8 46 -12 65 -14 65 -1
0 -3 16 -6 35 -2 19 -7 42 -10 50 -4 8 -8 24 -9 36 -2 11 -9 40 -15 65 -7 24
-14 51 -16 59 -2 8 -13 49 -24 90 -12 41 -23 82 -24 90 -1 9 -5 20 -8 25 -5 9
-30 80 -33 95 -7 29 -28 96 -35 109 -5 9 -23 52 -40 96 -46 120 -68 167 -144
315 -38 74 -74 145 -80 157 -6 13 -14 23 -18 23 -5 0 -8 7 -8 15 0 8 -4 15
-10 15 -5 0 -10 7 -10 15 0 8 -4 15 -10 15 -5 0 -9 4 -7 8 3 11 -113 179 -203
291 -82 103 -238 264 -334 346 -75 63 -213 165 -225 165 -5 0 -14 7 -21 15 -7
8 -24 21 -39 28 -123 65 -262 134 -286 144 -278 107 -487 147 -765 147 -142 0
-296 -11 -314 -22 -5 -3 -23 -6 -40 -7 -44 -3 -77 -11 -196 -44 -57 -16 -108
-27 -112 -25 -5 3 -8 1 -8 -4 0 -5 -19 -14 -42 -21 -23 -7 -53 -18 -67 -24
-14 -6 -28 -11 -31 -12 -41 -14 -274 -125 -280 -134 -3 -4 -20 -13 -37 -20
-18 -8 -33 -17 -33 -21 0 -4 -8 -10 -17 -13 -10 -3 -34 -16 -54 -28 l-37 -22
-45 32 c-25 17 -50 31 -56 31 -6 0 -11 3 -11 8 0 4 -10 12 -23 18 -12 6 -60
31 -107 56 -47 25 -130 65 -185 88 -55 23 -109 45 -120 50 -11 5 -58 21 -105
35 -47 15 -88 30 -92 33 -4 4 4 32 19 62 15 30 27 57 28 60 4 18 152 269 164
280 4 3 18 21 32 40 54 71 139 146 152 133 4 -3 7 -2 7 4 0 5 15 10 33 11 17
1 42 4 55 7 12 3 31 7 41 9 11 3 30 10 43 17 13 7 24 12 26 10 4 -3 65 31 96
53 87 63 168 183 192 282 8 32 9 220 2 244 -32 111 -74 180 -150 253 -34 31
-66 57 -71 57 -6 0 -18 6 -26 14 -40 34 -135 59 -247 62 -61 2 -112 2 -115 0z
m-839 -2536 c0 -3 28 -6 63 -6 54 -2 107 -10 182 -28 75 -19 142 -39 150 -46
6 -5 15 -9 20 -10 74 -16 370 -179 383 -212 2 -4 8 -8 14 -8 10 0 93 -65 136
-107 40 -40 130 -92 195 -114 94 -32 249 -32 322 0 71 31 113 53 137 73 14 13
50 41 78 63 29 22 57 45 64 50 29 26 86 65 93 65 5 0 20 10 32 22 26 23 271
152 271 142 0 -4 6 -2 13 4 10 8 111 42 142 48 6 1 12 3 15 4 12 4 80 17 140
26 41 6 202 5 250 -2 58 -7 183 -40 208 -53 11 -6 22 -7 26 -4 3 3 6 1 6 -5 0
-7 8 -12 18 -12 9 0 44 -16 77 -36 33 -19 68 -37 78 -41 9 -3 17 -9 17 -14 0
-5 7 -9 15 -9 8 0 15 -4 15 -8 0 -4 12 -15 28 -25 74 -45 210 -181 296 -297
23 -30 44 -56 49 -58 4 -2 7 -7 7 -12 0 -5 19 -37 42 -72 24 -35 61 -100 83
-144 22 -43 45 -82 50 -86 6 -4 7 -8 3 -8 -3 0 8 -30 26 -67 18 -38 37 -79 41
-93 4 -14 13 -38 20 -55 28 -65 45 -115 39 -115 -4 0 -2 -6 3 -12 9 -11 19
-42 28 -83 2 -5 12 -41 23 -80 24 -83 58 -226 66 -275 10 -65 17 -105 22 -130
4 -14 8 -45 10 -70 2 -25 6 -63 9 -85 4 -22 8 -60 10 -85 2 -25 6 -79 10 -120
8 -91 9 -471 1 -595 -5 -82 -8 -115 -20 -240 -12 -117 -22 -190 -26 -190 -1 0
-3 -16 -5 -35 -2 -19 -6 -48 -9 -65 -3 -16 -8 -43 -11 -60 -24 -136 -86 -400
-112 -475 -8 -25 -17 -56 -19 -69 -3 -13 -10 -34 -16 -45 -6 -12 -11 -23 -10
-26 1 -3 -6 -27 -15 -55 -10 -27 -18 -52 -18 -55 -10 -38 -19 -67 -25 -75 -3
-5 -19 -44 -34 -85 -29 -78 -35 -92 -82 -200 -41 -95 -180 -365 -209 -408 -14
-20 -25 -40 -25 -45 0 -4 -5 -13 -10 -20 -6 -7 -39 -55 -74 -109 -71 -106
-108 -160 -117 -168 -3 -3 -21 -26 -40 -52 -79 -104 -273 -311 -360 -383 -73
-61 -169 -134 -204 -155 -22 -13 -46 -30 -53 -37 -27 -26 -262 -133 -357 -162
-128 -39 -163 -44 -315 -43 -145 1 -153 1 -200 13 -19 4 -51 11 -70 14 -19 3
-39 10 -44 16 -6 5 -17 9 -25 9 -22 0 -198 91 -257 132 -52 37 -160 82 -174
73 -5 -3 -10 0 -12 6 -6 18 -165 14 -234 -6 -56 -16 -92 -33 -199 -95 -172
-98 -368 -169 -510 -185 -16 -1 -30 -4 -30 -5 0 -1 -22 -3 -50 -4 -27 -2 -60
-6 -72 -10 -12 -4 -24 -2 -27 3 -4 6 -18 6 -35 1 -16 -4 -32 -6 -34 -4 -3 3
-38 7 -78 10 -41 2 -82 7 -92 10 -10 3 -31 7 -47 9 -118 15 -320 98 -544 224
-81 45 -155 64 -251 63 -76 -1 -193 -32 -237 -63 -14 -11 -31 -19 -37 -19 -6
0 -11 -3 -11 -8 0 -4 -17 -16 -37 -27 -21 -11 -40 -23 -43 -26 -8 -11 -141
-70 -205 -91 -68 -23 -107 -32 -147 -32 -16 -1 -28 -4 -28 -7 0 -7 -236 -4
-285 4 -57 9 -210 49 -219 58 -6 5 -16 9 -24 9 -18 0 -226 100 -230 111 -2 5
-8 9 -14 9 -15 0 -147 89 -175 118 -12 12 -25 22 -29 22 -17 0 -245 216 -337
320 -39 44 -148 181 -176 220 -78 111 -141 209 -141 219 0 6 -4 11 -9 11 -5 0
-14 14 -21 30 -7 17 -16 30 -21 30 -5 0 -9 6 -9 13 0 7 -11 29 -25 49 -14 20
-25 44 -25 52 0 8 -4 16 -9 18 -14 5 -155 305 -211 448 -29 74 -56 144 -60
155 -8 18 -40 114 -47 140 -1 6 -14 48 -29 95 -27 90 -50 173 -58 212 -3 12
-14 60 -25 106 -12 45 -23 97 -26 115 -3 17 -10 55 -15 82 -16 78 -22 117 -35
205 -2 14 -7 45 -11 70 -3 25 -8 68 -10 95 -3 28 -7 73 -9 100 -18 196 -23
530 -11 700 4 55 9 129 11 165 2 36 5 65 6 65 1 0 2 14 3 30 1 17 5 35 8 40 2
6 4 22 3 38 -1 15 2 27 7 27 5 0 7 4 4 9 -5 8 -1 34 19 141 11 60 18 90 37
170 11 47 22 92 23 100 2 8 4 16 5 18 2 1 3 5 4 10 19 72 70 231 86 267 5 11
23 56 41 100 17 44 36 84 40 89 5 6 9 18 9 27 0 9 7 22 15 29 8 7 15 21 15 30
0 10 4 20 8 22 4 2 22 30 39 64 36 69 112 187 125 192 4 2 8 8 8 13 0 18 64
93 170 199 58 58 114 112 126 120 66 49 114 80 122 80 6 0 12 3 14 8 5 11 106
62 123 62 8 0 15 3 15 8 0 6 102 40 145 48 6 1 30 7 54 12 48 11 303 10 361
-2 19 -4 60 -14 90 -22 69 -19 71 -19 95 -29 11 -5 43 -17 70 -27 62 -24 189
-90 193 -100 2 -5 9 -8 15 -8 12 0 90 -51 95 -62 2 -5 10 -8 18 -8 8 0 14 -4
14 -10 0 -5 5 -10 11 -10 6 0 16 -6 23 -12 7 -7 32 -29 56 -48 24 -19 52 -43
62 -52 10 -10 22 -18 27 -18 5 0 14 -7 21 -15 14 -16 111 -64 143 -70 9 -2 22
-7 28 -10 5 -4 48 -8 96 -10 90 -3 136 5 206 33 16 7 30 12 33 12 15 0 188
130 214 161 17 21 211 146 290 187 89 46 179 85 197 84 4 0 17 5 28 10 40 22
177 52 285 63 36 4 66 8 67 8 5 5 143 2 143 -3z"/>
<path d="M2480 6379 c-19 -5 -43 -11 -53 -14 -103 -25 -244 -148 -296 -259
-31 -66 -59 -178 -55 -221 8 -84 15 -126 27 -161 19 -53 57 -127 69 -135 5 -3
8 -8 7 -10 -2 -2 23 -48 54 -101 31 -53 57 -102 57 -107 0 -6 4 -11 9 -11 5 0
11 -8 14 -17 4 -10 20 -40 37 -68 17 -27 33 -57 37 -65 3 -8 15 -26 25 -39 10
-13 15 -27 12 -32 -3 -5 0 -9 6 -9 6 0 14 -10 19 -22 11 -27 196 -348 211
-365 5 -7 10 -16 10 -22 0 -5 28 -37 62 -70 62 -62 172 -126 233 -137 17 -2
39 -7 49 -11 11 -3 51 -5 89 -4 98 2 217 45 337 121 14 9 145 84 240 138 25
14 73 43 108 64 34 21 64 38 67 38 4 0 79 43 235 136 25 15 45 25 45 23 0 -2
14 6 32 19 17 12 36 22 42 22 6 0 11 3 11 8 0 4 15 16 34 26 19 10 54 39 79
65 161 168 188 430 63 625 -50 79 -164 177 -221 191 -5 1 -23 8 -40 15 -16 7
-39 14 -50 16 -11 2 -45 10 -75 19 -30 9 -88 25 -127 35 -109 30 -219 59 -303
82 -41 11 -81 20 -87 21 -7 0 -13 4 -13 9 0 5 -4 7 -8 4 -7 -4 -84 15 -337 84
-22 6 -54 16 -72 21 -18 6 -42 12 -53 14 -12 2 -30 7 -40 10 -10 3 -27 8 -37
10 -10 2 -70 18 -133 36 -122 33 -254 45 -320 28z"/>
<path d="M7567 6383 c-3 -2 -14 -6 -26 -8 -13 -2 -30 -6 -39 -9 -9 -3 -28 -7
-42 -10 -14 -3 -46 -12 -72 -20 -27 -8 -48 -13 -48 -10 0 3 -8 0 -18 -5 -11
-6 -30 -12 -43 -15 -13 -3 -73 -18 -134 -35 -219 -59 -272 -73 -405 -107 -74
-19 -142 -38 -150 -41 -8 -3 -19 -7 -25 -8 -5 -2 -64 -17 -130 -34 -66 -18
-127 -34 -135 -36 -8 -2 -28 -8 -45 -15 -16 -6 -32 -11 -35 -10 -12 2 -106
-24 -117 -33 -7 -5 -13 -7 -13 -3 0 3 -23 -7 -50 -22 -203 -110 -304 -316
-268 -542 14 -86 64 -185 131 -257 38 -41 156 -123 177 -123 5 0 10 -4 10 -8
0 -4 12 -13 28 -19 25 -11 73 -38 147 -84 17 -11 44 -26 60 -35 17 -8 39 -21
50 -27 71 -42 236 -138 265 -155 19 -11 89 -50 155 -88 66 -38 131 -74 145
-81 88 -43 230 -54 337 -27 38 9 70 19 73 23 3 3 27 17 53 30 44 22 157 123
157 141 0 4 11 20 25 36 13 15 22 30 20 32 -2 2 11 27 29 55 18 29 36 62 40
75 4 12 11 22 15 22 4 0 18 23 31 50 13 28 26 50 30 50 3 0 12 16 20 35 8 19
18 35 24 35 5 0 7 3 3 6 -3 3 10 30 29 59 19 30 34 59 34 65 0 5 5 10 10 10 6
0 10 4 10 8 0 5 38 75 85 156 47 81 85 152 85 157 0 5 4 9 8 9 8 0 71 128 86
174 25 74 23 186 -5 289 -6 23 -10 44 -9 46 1 2 -2 7 -7 10 -4 3 -13 15 -19
26 -31 57 -43 73 -84 118 -25 27 -58 56 -75 64 -16 9 -32 19 -35 22 -9 13 -77
40 -136 56 -51 14 -196 19 -207 8z"/>
<path d="M3004 3845 c-278 -48 -469 -331 -406 -600 7 -33 15 -64 16 -70 11
-48 81 -152 135 -199 13 -12 29 -26 35 -31 6 -6 81 -62 166 -125 85 -63 157
-117 160 -120 3 -3 21 -17 40 -30 32 -23 54 -39 84 -65 7 -5 19 -14 27 -20 9
-5 40 -26 70 -46 30 -20 70 -44 89 -55 19 -10 38 -23 42 -29 4 -5 8 -6 8 -2 0
5 16 -1 35 -13 19 -12 35 -19 35 -16 0 3 21 -4 48 -16 43 -19 119 -41 182 -54
14 -2 31 -7 38 -9 21 -8 163 -19 232 -18 86 1 186 10 235 23 22 6 52 12 66 15
136 21 400 156 517 264 18 17 36 31 40 31 4 0 13 9 19 19 18 29 93 77 138 88
49 12 110 9 150 -8 17 -7 33 -12 37 -11 3 1 23 -14 45 -34 135 -125 213 -182
328 -242 39 -20 72 -37 75 -37 3 -1 14 -5 25 -10 11 -4 34 -14 52 -21 67 -27
212 -61 298 -71 95 -10 324 -3 366 11 8 3 25 8 39 10 49 9 167 45 214 66 113
48 252 126 292 163 6 7 24 21 40 32 15 11 67 50 116 88 49 37 91 67 94 67 3 0
10 5 17 10 53 45 70 58 102 80 20 14 50 37 67 53 16 15 33 27 38 27 15 0 102
98 135 153 19 31 32 57 28 57 -3 0 -1 6 4 13 16 19 36 116 38 177 4 189 -117
384 -288 464 -121 56 -256 64 -376 23 -70 -25 -201 -102 -201 -119 0 -5 -4 -8
-10 -8 -5 0 -70 -46 -144 -102 -344 -261 -341 -259 -448 -253 -74 4 -109 20
-172 78 -25 24 -63 57 -83 73 -20 16 -42 35 -49 42 -7 6 -17 12 -23 12 -6 0
-11 5 -11 10 0 6 -7 10 -15 10 -8 0 -15 5 -15 10 0 6 -4 10 -9 10 -5 0 -34 15
-65 34 -61 37 -208 100 -219 94 -1 -1 -13 4 -25 11 -13 7 -36 15 -50 18 -41 8
-57 11 -57 13 0 3 -38 9 -70 11 -16 2 -34 6 -40 9 -24 16 -363 2 -415 -16 -8
-3 -30 -8 -49 -10 -19 -3 -41 -10 -48 -16 -7 -6 -13 -8 -13 -4 0 8 -136 -42
-203 -76 -114 -57 -275 -172 -343 -245 -12 -13 -47 -35 -79 -49 -49 -23 -66
-26 -121 -21 -42 4 -78 14 -102 29 -33 20 -300 215 -312 228 -3 3 -59 45 -124
94 -102 75 -202 137 -221 136 -5 0 -8 1 -22 5 -75 20 -151 23 -229 10z"/>
</g>
</svg>
